<?xml version="1.0" encoding="UTF-8" standalone="no"?>
<svg
   xmlns:dc="http://purl.org/dc/elements/1.1/"
   xmlns:cc="http://creativecommons.org/ns#"
   xmlns:rdf="http://www.w3.org/1999/02/22-rdf-syntax-ns#"
   xmlns:svg="http://www.w3.org/2000/svg"
   xmlns="http://www.w3.org/2000/svg"
   xmlns:sodipodi="http://sodipodi.sourceforge.net/DTD/sodipodi-0.dtd"
   xmlns:inkscape="http://www.inkscape.org/namespaces/inkscape"
   version="1.0"
   width="2648.000000pt"
   height="2648.000000pt"
   viewBox="0 0 2648.000000 2648.000000"
   preserveAspectRatio="xMidYMid meet"
   id="svg10"
   sodipodi:docname="safari-pinned-tab.svg"
   inkscape:version="0.92.1 r15371">
  <defs
     id="defs14" />
  <sodipodi:namedview
     pagecolor="#ffffff"
     bordercolor="#666666"
     borderopacity="1"
     objecttolerance="10"
     gridtolerance="10"
     guidetolerance="10"
     inkscape:pageopacity="0"
     inkscape:pageshadow="2"
     inkscape:window-width="640"
     inkscape:window-height="480"
     id="namedview12"
     showgrid="false"
     inkscape:zoom="0.0668429"
     inkscape:cx="1765.3333"
     inkscape:cy="1765.3333"
     inkscape:window-x="0"
     inkscape:window-y="0"
     inkscape:window-maximized="0"
     inkscape:current-layer="svg10" />
  <metadata
     id="metadata2">
Created by potrace 1.11, written by Peter Selinger 2001-2013
<rdf:RDF>
  <cc:Work
     rdf:about="">
    <dc:format>image/svg+xml</dc:format>
    <dc:type
       rdf:resource="http://purl.org/dc/dcmitype/StillImage" />
  </cc:Work>
</rdf:RDF>
</metadata>
  <path
     id="path0"
     d="M 7.0847512,1333.5888 V 2671.4943 H 323.06245 639.04016 l -13.21742,-12.5425 c -7.26892,-6.8973 -60.1386,-53.617 -117.48967,-103.8214 -128.94653,-112.8862 -143.80446,-132.607 -143.80446,-190.9129 0,-73.3368 79.67085,-111.8756 154.24058,-74.6016 32.71056,16.3563 54.36348,43.308 107.16025,133.3963 18.85205,32.1766 35.68392,59.7036 37.39823,61.1753 1.70719,1.4717 21.96679,33.3807 45.02014,70.909 40.53253,65.9926 49.12185,74.3411 65.64696,63.8181 5.13493,-3.2708 3.12097,-14.6635 -8.72892,-49.4223 -23.32721,-68.4204 -86.7406,-236.3008 -101.96486,-269.9358 -37.93173,-83.8064 -1.31418,-168.395 53.02973,-122.5253 35.79774,30.217 42.42645,50.2454 80.20436,242.2946 l 35.38427,179.9216 27.25553,-1.6724 c 52.54958,-3.2306 57.07098,-6.1071 61.11223,-38.8457 4.76147,-38.5183 18.43237,-293.5569 28.38211,-529.4297 4.4147,-104.4904 10.44323,-242.9636 13.41037,-307.7182 2.96803,-64.7546 6.62872,-147.8386 8.13585,-184.631 6.28194,-153.3703 51.67646,-523.4216 70.23506,-572.62351 1.6672,-4.41509 3.7478,-13.43882 4.6281,-20.04807 0.8714,-6.60925 3.4411,-17.44629 5.7022,-24.08232 2.254,-6.63601 4.4147,-13.26577 4.8015,-14.73747 0.3823,-1.4717 2.5403,-9.9005 4.7944,-18.73068 39.052,-152.87532 95.4632,-234.97633 168.8121,-245.6662 16.719,-2.43499 33.5037,-10.48204 53.3499,-25.56737 59.2254,-45.04014 100.5911,-57.92417 229.0112,-71.34336 110.147,-11.50599 285.7817,-50.76727 325.1868,-72.68216 4.5347,-2.52151 51.3359,-18.21514 104.0055,-34.87206 243.3357,-76.96346 410.767,-165.38563 427.1854,-225.58424 4.6086,-16.88437 11.8704,-38.62533 16.1517,-48.31177 4.2751,-9.68644 15.258,-37.05998 24.3942,-60.83457 21.2199,-55.188596 43.4739,-78.401256 90.275,-94.1350239 L 2533.1992,-3.8546652 1270.142,-4.0865688 7.0847512,-4.309553 V 1333.5959 M 2503.9235,74.379803 c -30.9296,21.727584 -39.0921,80.186917 -24.5214,175.512687 6.6892,43.7834 22.8942,115.17404 27.1222,119.48834 3.0142,3.08431 43.0061,-59.44314 61.0188,-95.40604 9.5763,-19.13205 19.8924,-39.47446 22.9138,-45.20069 33.4165,-63.35696 -37.0782,-189.146838 -86.5334,-154.394297 m 151.9803,230.487217 c -21.5267,48.36529 -90.5818,145.46422 -151.2068,212.60656 -9.9168,10.98421 -18.2127,30.81196 -26.2685,62.80842 -26.795,106.35635 -68.7475,183.30643 -150.7933,276.55844 l -42.7795,48.62573 h 49.835 c 44.4208,0 98.9506,6.27477 121.0374,13.92759 9.2295,3.1976 -53.9029,44.97416 -122.5908,81.12434 -24.941,13.1249 -49.0418,27.1194 -53.557,31.1063 -55.8635,49.3018 -384.9724,162.1542 -440.8225,151.1628 -8.9566,-1.766 38.0713,-66.0185 69.4944,-94.9574 21.8734,-20.1426 17.8126,-22.1155 -38.0518,-18.4434 -131.3402,8.6366 -232.4986,-26.1962 -392.3409,-135.10798 -40.5325,-27.62152 -75.57,-50.21874 -77.8641,-50.21874 -2.2878,0 -8.5093,-4.81646 -13.8176,-10.70325 -5.3083,-5.88678 -11.704,-10.70324 -14.2115,-10.70324 -2.5074,0 -14.1706,-6.99011 -25.9209,-15.52595 -35.6777,-25.9286 -191.9393,-68.053 -191.9393,-51.75018 0,1.73214 -5.9485,38.65209 -13.2112,82.04036 -25.214,150.54738 -43.353,342.66438 -61.7658,654.18848 -2.8738,48.566 -12.6039,211.1215 -21.62,361.2345 -9.0223,150.113 -17.545,294.6068 -18.9525,321.0973 -1.4005,26.4906 -7.0484,120.4115 -12.5568,208.7133 -5.5084,88.3017 -8.3492,162.2014 -6.3086,164.2279 2.0406,2.0202 28.7689,8.7766 59.3979,15.0184 30.6228,6.2409 57.1243,12.2418 58.8787,13.3318 1.7605,1.0908 12.2766,-81.251 23.3805,-182.9782 28.5022,-261.2929 47.8877,-306.6149 131.1535,-306.6149 88.9075,0 120.2042,89.1312 73.3293,208.8604 -32.1362,82.0876 -125.6451,300.2527 -131.967,307.8922 -9.0233,10.9039 14.2239,25.4068 44.3604,27.6679 l 27.9286,2.1005 85.3597,-100.4027 c 164.0908,-193.0196 192.2861,-215.2494 229.3243,-180.8179 15.298,14.2219 17.3787,66.0657 2.8471,70.9286 -2.9876,0.9972 -5.4346,4.2081 -5.4346,7.1248 0,5.8395 -72.5896,79.4243 -78.3513,79.4243 -1.974,0 -11.0764,7.8267 -20.2392,17.3928 -9.1628,9.566 -25.9013,24.6174 -37.2115,33.4476 -11.3039,8.8302 -26.0747,21.4734 -32.8235,28.096 -6.7558,6.6226 -14.6516,12.0412 -17.5521,12.0412 -2.9013,0 -8.4159,4.4017 -12.2509,9.7801 -3.834,5.3783 -11.7698,12.5299 -17.6383,15.888 -33.9376,19.446 166.1509,7.1774 244.0488,-14.9649 109.8135,-31.2196 163.4372,-28.4769 198.2479,10.1351 l 10.1632,11.2714 h 409.9668 409.9667 V 1470.0623 c 0,-660.79154 -0.6046,-1201.37224 -1.3337,-1201.29197 -0.7291,0.0892 -8.536,16.32245 -17.3387,36.09669 M 1738.5268,2085.258 c 25.6613,25.735 -15.8983,109.949 -54.2568,109.949 -4.035,0 -7.3356,2.0203 -7.3356,4.4954 0,2.4689 -5.5155,7.0106 -12.2571,10.095 -6.7425,3.0771 -47.9215,30.0689 -91.5154,59.9711 -56.357,38.6655 -80.905,52.7206 -84.973,48.64 -8.2559,-8.2816 -2.6675,-15.781 95.9568,-128.7332 103.8784,-118.9737 125.3783,-133.5168 154.3811,-104.4173 m 267.3493,294.935 c 36.3713,36.4847 1.3204,71.1427 -107.7071,106.4634 -173.7203,56.2928 -191.7526,60.7676 -196.354,48.7399 -2.6337,-6.8965 132.328,-99.3663 145.0315,-99.3663 2.2674,0 8.7832,-4.234 14.4711,-9.4054 5.6889,-5.1706 16.3455,-12.4354 23.6811,-16.1414 7.3356,-3.706 26.5416,-15.1184 42.6799,-25.3605 36.1107,-22.9112 58.8378,-24.3427 78.1975,-4.9297 m -1843.3833,27.7749 c 20.93981,13.9205 197.56776,215.5098 195.0532,222.6141 -4.52762,12.8038 -224.10929,-124.3984 -261.460397,-163.3583 -40.059498,-41.7899 16.618467,-92.3556 66.407197,-59.2558"
     inkscape:connector-curvature="0"
     style="display:block;fill:none;fill-rule:evenodd;stroke:none;stroke-width:6.67912006" />
  <path
     id="path1"
     d="m 2498.7485,7.7315961 c -46.8011,15.7337679 -69.0551,38.9464279 -90.275,94.1350239 -9.1362,23.77459 -20.1191,51.14813 -24.3942,60.83457 -4.2813,9.68644 -11.5431,31.4274 -16.1517,48.31177 -16.4184,60.19861 -183.8497,148.62078 -427.1854,225.58424 -52.6696,16.65692 -99.4708,32.35055 -104.0055,34.87206 -39.4051,21.91489 -215.0398,61.17617 -325.1868,72.68216 -128.4201,13.41919 -169.7858,26.30322 -229.0112,71.34336 -19.8462,15.08533 -36.6309,23.13238 -53.3499,25.56737 -73.3489,10.68987 -129.7601,92.79088 -168.8121,245.6662 -2.2541,8.83018 -4.4147,17.25898 -4.7944,18.73068 -0.3913,1.4717 -2.5475,8.10146 -4.8015,14.73747 -2.2611,6.63603 -4.8282,17.47307 -5.7022,24.08232 -0.8803,6.60925 -2.9609,15.63298 -4.6281,20.04807 -18.5586,49.20191 -63.95312,419.25321 -70.23506,572.62351 -1.50713,36.7924 -5.16782,119.8764 -8.13585,184.631 -2.96714,64.7546 -8.99567,203.2278 -13.41037,307.7182 -9.94974,235.8728 -23.62064,490.9114 -28.38211,529.4297 -4.04125,32.7386 -8.56265,35.6151 -61.11223,38.8457 l -27.25553,1.6724 -35.38427,-179.9216 c -37.77791,-192.0492 -44.40662,-212.0776 -80.20436,-242.2946 -54.34391,-45.8697 -90.96146,38.7189 -53.02973,122.5253 15.22426,33.635 78.63765,201.5154 101.96486,269.9358 11.84989,34.7588 13.86385,46.1515 8.72892,49.4223 -16.52511,10.523 -25.11443,2.1745 -65.64696,-63.8181 -23.05335,-37.5283 -43.31295,-69.4373 -45.02014,-70.909 -1.71431,-1.4717 -18.54618,-28.9987 -37.39823,-61.1753 -52.79677,-90.0883 -74.44969,-117.04 -107.16025,-133.3963 -75.51668,-37.7423 -154.41397,1.3112 -154.12055,76.2874 0.23119,59.3762 14.43113,77.2845 167.93193,211.7708 l 106.69966,93.4794 312.09649,-0.2497 c 171.65308,-0.1427 308.49538,-1.5859 304.09408,-3.211 -15.5248,-5.72 -26.8421,-18.9849 -21.6067,-25.3131 6.3219,-7.6395 99.8308,-225.8055 131.967,-307.8922 46.8749,-119.7292 15.5782,-208.8605 -73.3293,-208.8605 -83.2658,0 -102.6513,45.3211 -131.1535,306.6141 -11.1039,101.7281 -21.62,184.069 -23.3805,182.9791 -1.7544,-1.0909 -28.2559,-7.0909 -58.8787,-13.3327 -30.629,-6.2409 -57.3573,-12.9973 -59.3979,-15.0175 -2.0406,-2.0274 0.8002,-75.9262 6.3086,-164.2279 5.5084,-88.3018 11.1563,-182.2228 12.5568,-208.7133 1.4075,-26.4905 9.9302,-170.9843 18.9525,-321.0973 9.0161,-150.113 18.7462,-312.6685 21.62,-361.2345 18.4128,-311.525 36.5518,-503.6411 61.7658,-654.18939 7.2627,-43.38827 13.2112,-80.30733 13.2112,-82.04036 0,-16.30193 156.2616,25.82157 191.9393,51.75018 11.7503,8.53584 23.4135,15.52684 25.9209,15.52684 2.5075,0 8.9032,4.81646 14.2115,10.70324 5.3083,5.88679 11.5298,10.70325 13.8176,10.70325 2.2941,0 37.3316,22.59722 77.8641,50.21785 159.8423,108.91269 261.0007,143.74459 392.3409,135.10879 55.8644,-3.673 59.9252,-1.6991 38.0518,18.4426 -31.4231,28.9389 -78.451,93.1923 -69.4944,94.9583 55.8501,10.9905 384.959,-101.8619 440.8225,-151.1637 4.5152,-3.9869 28.616,-17.9814 53.557,-31.1063 68.6879,-36.15019 131.8203,-77.92586 122.5908,-81.12346 -22.0868,-7.65282 -76.6166,-13.92759 -121.0374,-13.92759 h -49.835 l 42.7795,-48.62662 c 82.0458,-93.25201 123.9983,-170.2012 150.7933,-276.55844 8.0424,-31.94918 16.3588,-51.8367 26.2481,-62.80753 18.1594,-20.13548 75.7772,-92.91753 105.3197,-133.03507 12.3033,-16.70331 31.8694,-50.07067 43.4729,-74.15297 l 21.107,-43.77002 V 131.09094 -4.3184724 l -70.6885,0.2229842 c -57.8979,0.1962262 -76.9242,2.3279555 -105.1392,11.8208408 m 60.2649,83.2846154 c 38.6991,36.725512 52.6029,97.640342 31.4435,137.750752 -3.0214,5.72623 -13.3375,26.06864 -22.9138,45.20069 -18.0127,35.9629 -58.0046,98.49035 -61.0188,95.40604 -4.228,-4.3143 -20.433,-75.70494 -27.1222,-119.48834 -22.3065,-145.9316 14.9379,-220.252245 79.6113,-158.869142 M 1688.9381,2080.9232 c -15.3452,7.5859 -180.6558,190.284 -199.355,220.32 -19.6727,31.5942 5.3946,22.1557 83.5788,-31.4881 43.5939,-29.9021 84.7729,-56.8939 91.5154,-59.9711 6.7416,-3.0843 12.2571,-7.6261 12.2571,-10.095 0,-2.4751 3.3006,-4.4953 7.3356,-4.4953 10.5099,0 55.6768,-44.7993 62.0058,-61.5169 16.4851,-43.482 -15.8786,-73.2503 -57.3377,-52.7536 m 238.7405,304.1862 c -16.1383,10.2421 -35.3443,21.6544 -42.6799,25.3604 -7.3356,3.706 -17.9922,10.9708 -23.6811,16.1414 -5.6879,5.1714 -12.2037,9.4055 -14.4711,9.4055 -12.7035,0 -147.6652,92.4697 -145.0315,99.3662 3.9212,10.2483 7.1222,9.8809 65.8141,-7.693 206.5839,-61.8308 241.328,-78.1399 248.6902,-116.7385 8.1821,-42.92 -39.7189,-56.8877 -88.6407,-25.842 m -364.0592,4.9368 c -29.8759,17.8075 -39.4193,27.7419 -152.0871,158.3545 l -103.8587,120.4115 36.4708,1.6126 c 45.4274,2.0069 57.9984,-1.0837 72.4962,-17.8075 6.3086,-7.2853 13.5508,-13.239 16.0912,-13.239 2.5341,0 10.1365,-5.4185 16.8923,-12.0412 6.7488,-6.6226 21.5196,-19.2658 32.8235,-28.096 11.3102,-8.8302 28.0487,-23.8816 37.2115,-33.4476 9.1628,-9.566 18.2652,-17.3928 20.2392,-17.3928 5.7617,0 78.3513,-73.5848 78.3513,-79.4243 0,-2.9166 2.447,-6.1276 5.4346,-7.1248 2.9876,-1.0034 6.9025,-14.2683 8.696,-29.4874 5.6088,-47.4885 -26.7078,-67.3769 -68.7608,-42.318 M 91.844291,2409.8606 c -30.803302,30.8994 -16.591797,46.8133 130.880469,146.5613 168.35873,113.8691 173.77996,109.6208 45.39359,-35.5615 C 153.803,2391.5848 126.92803,2374.6674 91.844291,2409.8606 M 1652.927,2647.7803 c -35.2109,10.128 -66.4206,19.4202 -69.3548,20.6377 -2.9342,1.2237 56.8576,2.4144 132.8678,2.649 l 138.2027,0.4192 -10.1632,-11.2723 c -33.677,-37.3543 -91.8221,-41.1272 -191.5525,-12.4354"
     inkscape:connector-curvature="0"
     style="display:block;fill:#974c25;fill-rule:evenodd;stroke:none;stroke-width:6.67912006" />
</svg>
